HIERARCHY
ROOT Pelvis
{
	OFFSET 0.000000 0.000000 0.000000
	CHANNELS 6 Xposition Yposition Zposition Xrotation Yrotation Zrotation
	JOINT LeftUpLeg_virtual
	{
		OFFSET 0.000000 0.000000 0.000000
		CHANNELS 3 Xrotation Yrotation Zrotation
		JOINT LeftUpLeg
		{
			OFFSET 18.735201 -5.666702 -4.541200
			CHANNELS 3 Xrotation Yrotation Zrotation
			JOINT LeftLeg
			{
				OFFSET -0.021200 -31.938179 0.493100
				CHANNELS 3 Xrotation Yrotation Zrotation
				JOINT LeftFoot
				{
					OFFSET 0.021200 -31.938179 -4.336299
					CHANNELS 3 Xrotation Yrotation Zrotation
					JOINT LeftToeBase
					{
						OFFSET 0.943001 -26.722000 15.023500
						CHANNELS 3 Xrotation Yrotation Zrotation
						End Site
						{
							OFFSET 0 0 0
						}
					}
				}
			}
		}
	}
	JOINT RightUpLeg_virtual
	{
		OFFSET 0.000000 0.000000 0.000000
		CHANNELS 3 Xrotation Yrotation Zrotation
		JOINT RightUpLeg
		{
			OFFSET -18.735201 -5.666702 -4.541200
			CHANNELS 3 Xrotation Yrotation Zrotation
			JOINT RightLeg
			{
				OFFSET 0.018946 -31.938133 0.493100
				CHANNELS 3 Xrotation Yrotation Zrotation
				JOINT RightFoot
				{
					OFFSET -0.018946 -31.938126 -4.336299
					CHANNELS 3 Xrotation Yrotation Zrotation
					JOINT RightToeBase
					{
						OFFSET -0.943001 -26.722004 15.023500
						CHANNELS 3 Xrotation Yrotation Zrotation
						End Site
						{
							OFFSET 0 0 0
						}
					}
				}
			}
		}
	}
	JOINT Hips_virtual
	{
		OFFSET 0.000000 0.000000 0.000000
		CHANNELS 3 Xrotation Yrotation Zrotation
		JOINT Hips
		{
			OFFSET -0.000000 -0.000000 -0.000000
			CHANNELS 3 Xrotation Yrotation Zrotation
			JOINT Spine
			{
				OFFSET 0.000000 10.199997 -0.299500
				CHANNELS 3 Xrotation Yrotation Zrotation
				JOINT Spine1
				{
					OFFSET 0.000000 11.900002 -1.516600
					CHANNELS 3 Xrotation Yrotation Zrotation
					JOINT Spine2
					{
						OFFSET 0.000000 13.600006 -2.842500
						CHANNELS 3 Xrotation Yrotation Zrotation
						JOINT Neck_virtual
						{
							OFFSET 0.000000 0.000000 0.000000
							CHANNELS 3 Xrotation Yrotation Zrotation
							JOINT Neck
							{
								OFFSET 0.000000 9.624100 -2.890100
								CHANNELS 3 Xrotation Yrotation Zrotation
								JOINT Head
								{
									OFFSET 0.000000 14.068802 -1.351900
									CHANNELS 3 Xrotation Yrotation Zrotation
									End Site
									{
										OFFSET 0 0 0
									}
								}
							}
						}
						JOINT LeftShoulder_virtual
						{
							OFFSET 0.000000 0.000000 0.000000
							CHANNELS 3 Xrotation Yrotation Zrotation
							JOINT LeftShoulder
							{
								OFFSET 15.263000 10.923401 -0.547700
								CHANNELS 3 Xrotation Yrotation Zrotation
								JOINT LeftArm
								{
									OFFSET 25.438599 -2.830597 -13.032500
									CHANNELS 3 Xrotation Yrotation Zrotation
									JOINT LeftForeArm
									{
										OFFSET 29.960503 0.000000 0.000000
										CHANNELS 3 Xrotation Yrotation Zrotation
										JOINT LeftHand
										{
											OFFSET 27.849251 0.000000 0.000000
											CHANNELS 3 Xrotation Yrotation Zrotation
											End Site
											{
												OFFSET 0 0 0
											}
										}
									}
								}
							}
						}
						JOINT RightShoulder_virtual
						{
							OFFSET 0.000000 0.000000 0.000000
							CHANNELS 3 Xrotation Yrotation Zrotation
							JOINT RightShoulder
							{
								OFFSET -15.263000 10.923401 -0.547700
								CHANNELS 3 Xrotation Yrotation Zrotation
								JOINT RightArm
								{
									OFFSET -25.438599 -2.830597 -13.032500
									CHANNELS 3 Xrotation Yrotation Zrotation
									JOINT RightForeArm
									{
										OFFSET -29.960503 0.000000 0.000000
										CHANNELS 3 Xrotation Yrotation Zrotation
										JOINT RightHand
										{
											OFFSET -27.849251 0.000000 0.000000
											CHANNELS 3 Xrotation Yrotation Zrotation
											End Site
											{
												OFFSET 0 0 0
											}
										}
									}
								}
							}
						}
					}
				}
			}
		}
	}
}
MOTION
Frames: 10
Frame Time: 0.03333333
1.138340 110.074211 3.633446 0.000000 0.000000 0.000000 -33.775893 -2.660665 3.079295 -80.011896 0.125737 20.551629 48.064874 15.520790 -12.977768 -7.266682 19.868180 -12.464716 0.000000 0.000000 0.000000 -39.357855 1.088171 -0.181313 -77.541157 2.767414 -13.858791 52.957612 -16.715486 4.923178 -6.062016 -20.307107 6.067967 0.000000 0.000000 0.000000 -21.225311 -8.330681 0.114521 -71.029507 4.443438 8.474913 0.345945 -2.979979 0.830552 -0.781144 -1.436922 -0.054569 0.000000 0.000000 0.000000 -0.286889 -1.307860 -0.119306 -2.185174 0.003388 -0.460133 0.000000 0.000000 0.000000 1.552850 -1.251299 0.643354 0.080859 -5.129522 -6.335207 6.095215 -27.175552 -55.927979 13.148187 -62.770463 2.185625 0.000000 0.000000 0.000000 1.954653 -2.022267 1.055752 0.775372 -0.124936 9.810934 8.407619 26.200860 46.847113 40.879587 80.161211 -34.986029 0.000000 0.000000 0.000000 
0.394574 109.679131 3.950668 0.000000 0.000000 0.000000 -34.452936 -4.645352 3.601341 -80.433366 -0.896698 20.926270 49.115549 16.211652 -14.607932 -6.340937 21.207363 -14.181506 0.000000 0.000000 0.000000 -38.693681 3.328904 0.225050 -76.804944 3.269865 -13.795211 53.100250 -18.412969 5.813158 -6.160262 -22.203167 5.874842 0.000000 0.000000 0.000000 -21.727066 -10.506501 -0.456562 -68.341719 6.565747 9.411948 0.997049 -3.434382 0.554569 -0.329690 -1.367058 0.163832 0.000000 0.000000 0.000000 -0.492657 -1.705614 -0.231515 -2.277431 -0.058161 -0.430126 0.000000 0.000000 0.000000 0.826546 -1.551066 0.855143 0.523207 -4.441335 -5.891135 8.243034 -29.195886 -57.585550 16.129038 -64.459951 3.482103 0.000000 0.000000 0.000000 1.748672 -2.234620 1.070204 0.901384 -0.878821 10.530129 10.061154 27.686184 46.361470 64.105874 83.158113 -57.767759 0.000000 0.000000 0.000000 
0.617816 109.350220 2.702248 0.000000 0.000000 0.000000 -33.574331 -6.661747 4.382349 -79.575604 -1.781879 21.695871 50.467223 16.121562 -14.613388 -5.421216 21.142166 -14.131416 0.000000 0.000000 0.000000 -39.181069 3.579414 -0.115788 -77.212434 3.597947 -14.041020 54.152851 -18.904825 6.992522 -5.369626 -23.152164 6.991886 0.000000 0.000000 0.000000 -19.991619 -10.204276 0.796726 -69.881298 8.606715 10.410710 2.181943 -3.859739 0.415476 -0.660425 -1.596559 0.600518 0.000000 0.000000 0.000000 -0.304255 -2.060745 -0.218453 -2.343842 -0.003341 -0.403324 0.000000 0.000000 0.000000 0.310961 -1.597732 0.933462 0.230030 -4.492303 -6.158718 9.513895 -28.845487 -54.735329 18.245373 -63.000627 6.062189 0.000000 0.000000 0.000000 1.441516 -2.371434 0.928568 1.103422 -2.346414 10.206201 11.477123 26.269128 46.991490 84.656705 84.334169 -78.532586 0.000000 0.000000 0.000000 
0.893673 109.367607 3.304863 0.000000 0.000000 0.000000 -33.129013 -4.657744 5.322502 -79.170567 -1.534549 22.287227 50.114676 16.160279 -14.573001 -5.550971 21.183634 -14.174730 0.000000 0.000000 0.000000 -39.037209 3.596203 -1.460457 -76.987638 4.206142 -15.066079 54.058178 -19.566416 6.757821 -5.186826 -23.759266 6.063557 0.000000 0.000000 0.000000 -21.741979 -9.407914 0.253630 -68.468043 8.418478 10.134825 0.425607 -3.980308 0.711793 -0.868510 -1.203670 0.255109 0.000000 0.000000 0.000000 -0.508583 -2.154704 -0.225251 -2.536526 -0.120097 -0.393464 0.000000 0.000000 0.000000 0.298342 -1.750668 0.814613 -0.280672 -4.196357 -5.877179 9.227770 -29.106482 -54.489671 17.780888 -63.303675 5.979236 0.000000 0.000000 0.000000 1.379358 -2.190971 0.889110 0.822322 -1.774428 11.162617 11.035089 28.019345 46.315868 95.602404 84.588109 -89.505688 0.000000 0.000000 0.000000 
1.188444 109.749924 2.500185 0.000000 0.000000 0.000000 -32.262050 -6.074583 4.973705 -78.493818 -1.653513 22.319733 49.282643 16.643872 -14.350422 -6.320883 21.464549 -13.611105 0.000000 0.000000 0.000000 -38.970170 4.780975 -1.745651 -76.835393 4.708314 -15.366056 54.612543 -18.737357 7.448289 -4.714675 -23.273921 7.677037 0.000000 0.000000 0.000000 -21.570612 -8.336931 0.708748 -72.828258 8.075134 11.482473 1.443157 -3.755514 0.300831 -1.189022 -1.309756 0.512792 0.000000 0.000000 0.000000 0.014333 -2.376816 -0.186634 -2.639084 0.048518 -0.322178 0.000000 0.000000 0.000000 0.334333 -2.130733 0.835897 -0.624062 -3.584906 -6.285441 6.514538 -29.667965 -55.644906 15.908764 -65.542577 4.633133 0.000000 0.000000 0.000000 0.953045 -2.336234 1.103190 0.730677 -1.988534 11.173270 12.445235 24.990223 48.037137 118.450971 85.388580 -111.980917 0.000000 0.000000 0.000000 
1.009863 109.761955 3.711256 0.000000 0.000000 0.000000 -32.932338 -4.821131 5.400406 -79.113057 -1.599605 22.510883 49.046619 16.671976 -14.010164 -6.471189 21.338520 -13.194180 0.000000 0.000000 0.000000 -39.166818 3.926558 -1.858974 -77.042218 4.470905 -15.236692 54.736016 -19.052625 7.115142 -5.022145 -23.287943 6.841955 0.000000 0.000000 0.000000 -23.972238 -10.932210 0.220292 -70.430445 10.412286 12.892158 0.494104 -4.047787 0.142047 -0.567103 -0.918078 0.458489 0.000000 0.000000 0.000000 -0.382558 -2.366848 -0.630843 -2.419483 -0.128074 -0.490506 0.000000 0.000000 0.000000 0.154881 -1.927330 0.792013 -0.206310 -3.224773 -5.304530 5.675019 -28.715112 -56.620591 17.338744 -66.986069 5.947517 0.000000 0.000000 0.000000 0.859331 -2.145956 0.891107 0.767520 -2.368565 10.447789 10.344837 26.198864 49.161509 121.651325 85.357461 -114.568944 0.000000 0.000000 0.000000 
1.223271 109.651031 3.001673 0.000000 0.000000 0.000000 -32.579367 -4.598220 4.372768 -78.829556 -0.972088 21.784496 51.419925 15.831940 -14.547350 -4.759891 20.805338 -14.242156 0.000000 0.000000 0.000000 -40.574554 2.950086 -1.941901 -78.424601 4.331654 -15.083793 55.401017 -18.557890 6.867631 -4.301686 -22.794023 6.763803 0.000000 0.000000 0.000000 -23.648867 -9.928823 0.134210 -70.131057 11.267440 12.296779 0.275944 -3.222950 0.170193 -0.139203 -1.326757 0.419251 0.000000 0.000000 0.000000 -0.220255 -2.405544 -0.571780 -2.550348 -0.111812 -0.454836 0.000000 0.000000 0.000000 0.285261 -1.812257 0.862297 -0.037632 -3.474810 -4.706856 5.370594 -29.288210 -55.473465 16.492549 -68.145139 5.814353 0.000000 0.000000 0.000000 0.798201 -2.011735 0.890374 0.672968 -3.075012 11.147031 8.866152 24.921631 51.249228 129.840038 86.294188 -122.536462 0.000000 0.000000 0.000000 
0.742883 109.994469 2.962347 0.000000 0.000000 0.000000 -33.964010 -4.624122 3.624008 -80.035426 -0.875209 21.068087 50.538421 15.836688 -14.055399 -5.291067 20.663530 -13.755455 0.000000 0.000000 0.000000 -40.690859 3.813477 -1.077964 -78.547421 4.212727 -14.514043 56.305378 -17.630369 7.138478 -3.513896 -22.051816 7.782869 0.000000 0.000000 0.000000 -25.137277 -14.195910 -0.862095 -70.752564 12.192332 15.249366 0.485429 -3.187242 0.836239 -0.786400 -1.252310 0.446841 0.000000 0.000000 0.000000 -0.681359 -2.396864 -0.555381 -2.763761 -0.050435 -0.341756 0.000000 0.000000 0.000000 0.000599 -1.990852 0.907981 -0.461927 -2.725688 -4.751134 9.241448 -29.783101 -53.437337 21.061564 -69.270693 10.414514 0.000000 0.000000 0.000000 1.030358 -1.657461 0.766419 0.254300 -2.673510 11.673022 9.079810 23.074271 51.911196 147.935750 85.430613 -140.621027 0.000000 0.000000 0.000000 
1.162270 110.292976 2.856066 0.000000 0.000000 0.000000 -33.895804 -5.379247 3.739112 -80.002771 -1.164186 21.261443 51.566132 15.909507 -13.885419 -4.206135 20.797310 -13.479352 0.000000 0.000000 0.000000 -40.154310 1.749507 -1.528228 -78.068154 3.601785 -14.546539 54.837926 -17.498376 7.251881 -4.333960 -22.070266 8.268063 0.000000 0.000000 0.000000 -24.413666 -13.137114 -0.010766 -71.766894 12.402543 16.483388 0.098207 -3.262514 0.222603 -0.868373 -1.220355 0.335488 0.000000 0.000000 0.000000 -0.647005 -2.390227 -0.764000 -2.734649 -0.060040 -0.436938 0.000000 0.000000 0.000000 -0.126439 -2.094404 0.736805 -0.415911 -3.192372 -5.040825 9.047928 -28.235012 -53.293418 19.536342 -67.733169 8.939078 0.000000 0.000000 0.000000 0.633511 -1.754737 0.779349 0.155137 -2.938974 11.609787 8.130481 22.375409 53.184730 152.668484 85.630942 -145.046608 0.000000 0.000000 0.000000 
1.322041 110.502914 3.338215 0.000000 0.000000 0.000000 -34.325184 -5.712142 3.733568 -80.397494 -1.352832 21.254078 52.159658 15.623549 -13.732613 -3.822835 20.462099 -13.397162 0.000000 0.000000 0.000000 -40.248826 2.257825 -1.757730 -78.142200 3.893432 -14.785333 56.074753 -17.425870 7.265806 -3.615093 -21.933206 8.160135 0.000000 0.000000 0.000000 -24.490852 -12.937665 0.256528 -70.716521 13.915300 16.586672 -0.004178 -3.145236 0.135232 -0.947279 -1.174446 0.261017 0.000000 0.000000 0.000000 -0.234684 -2.365007 -0.709163 -2.567697 -0.070761 -0.453344 0.000000 0.000000 0.000000 0.146879 -2.133540 0.842745 -0.144967 -2.979296 -5.390848 9.786362 -28.227331 -52.539256 19.727161 -68.636359 9.530197 0.000000 0.000000 0.000000 0.755471 -1.762244 1.047803 -0.056452 -3.533950 12.268370 6.391295 20.488006 55.000269 155.776889 86.603793 -148.091014 0.000000 0.000000 0.000000 
